<svg xmlns="http://www.w3.org/2000/svg" viewBox="0 0 512 512" width="512" height="512">
  <defs>
    <linearGradient id="logo512Grad" x1="0%" y1="0%" x2="100%" y2="100%">
      <stop offset="0%" style="stop-color:#4F46E5;stop-opacity:1" />
      <stop offset="100%" style="stop-color:#7C3AED;stop-opacity:1" />
    </linearGradient>
    <filter id="shadow512">
      <feDropShadow dx="0" dy="8" stdDeviation="8" flood-opacity="0.3"/>
    </filter>
  </defs>
  <circle cx="256" cy="256" r="240" fill="url(#logo512Grad)" filter="url(#shadow512)"/>
  <g transform="translate(256, 256)">
    <rect x="-100" y="-90" width="200" height="180" rx="10" fill="white" opacity="0.95"/>
    <rect x="-105" y="-90" width="15" height="180" rx="5" fill="white" opacity="0.8"/>
    <g transform="translate(0, -10)">
      <path d="M -13 -38 Q -13 -60 0 -60 Q 13 -60 13 -50 Q 13 -38 0 -30 L 0 -10" 
            stroke="#4F46E5" stroke-width="12" fill="none" stroke-linecap="round"/>
      <circle cx="0" cy="8" r="8" fill="#4F46E5"/>
    </g>
    <line x1="-60" y1="40" x2="60" y2="40" stroke="#4F46E5" stroke-width="5" opacity="0.3"/>
    <line x1="-60" y1="55" x2="35" y2="55" stroke="#7C3AED" stroke-width="5" opacity="0.3"/>
    <line x1="-60" y1="70" x2="50" y2="70" stroke="#4F46E5" stroke-width="4" opacity="0.2"/>
  </g>
  <circle cx="85" cy="115" r="8" fill="white" opacity="0.8"/>
  <circle cx="425" cy="395" r="10" fill="white" opacity="0.7"/>
  <circle cx="400" cy="125" r="7" fill="white" opacity="0.9"/>
  <circle cx="105" cy="405" r="6" fill="white" opacity="0.8"/>
</svg>
